<svg version="1.0" xmlns="http://www.w3.org/2000/svg" width="512x512" height="512x512" viewBox="0 0 400 400" fill="#fff"><rect width="100%" height="100%" fill="#FF0"/><path d="M0 200v200h400V0H0v200zm202-92 2 1c2 0 4-2 7-5l5-6v65l-5 6-6 6-2-2-6-6-3-4V98l4 5 4 5zm64 18-1 6v3c1 2 2 2 9 2h8l-3 2-7 6-11 10-21 17c-7 6-7 7-17 6h-8l1-5c2-10 2-11 9-17l17-14a745 745 0 0 1 25-22l-1 6zm-102 12a1190 1190 0 0 1 25 21c3 3 4 5 5 10l1 8 1 3h-9c-9 0-8 1-22-11a1071 1071 0 0 0-35-30l7-1h7l1-4-1-6c-2-7-1-7 7 0l12 10zm130 45c-7 6-7 8-1 14l4 5h-62l-3-2-7-6-4-4 3-3 7-5 4-3h64l-5 4zm-82-1c5 3 6 7 5 14l-3 4c-2 2-4 3-8 3l-6-1c-3-1-6-8-5-11v-3l2-3c4-5 11-6 15-3zm-30 4 6 5c2 0 1 2-5 7l-6 5h-64l5-5c3-2 5-5 5-6l-3-4-7-6 32-1h31l6 5zm53 18 7 6 7 6 8 6a324 324 0 0 0 19 16l5 5h-5l-7 1h-2v15l-27-22-9-7c-14-11-13-10-15-23v-5h7c7 0 9 0 12 2zm-41 8v8l-23 22-22 22-1-6-1-8-8-1-6-1 3-3 22-22 20-19h16v8zm17 1 5 6v64l-4-5-7-5-4 3-6 7v-64l4-5 5-6c0-2 3 0 7 5z" fill="#1e1b4b"/></svg>